<?xml version="1.0" standalone="no"?><!DOCTYPE svg PUBLIC "-//W3C//DTD SVG 1.1//EN" "http://www.w3.org/Graphics/SVG/1.1/DTD/svg11.dtd"><svg xmlns:xlink="http://www.w3.org/1999/xlink" version="1.1" class="highcharts-root" style="font-family:proximanova, 'helvetica neue', helvetica, arial, sans-serif;font-size:12px;" xmlns="http://www.w3.org/2000/svg" width="800" height="400" viewBox="0 0 800 400"><desc>Created with Highstock 5.0.14</desc><defs><clipPath id="highcharts-9n0y9j7-87"><rect x="0" y="0" width="726" height="321" fill="none"></rect></clipPath><clipPath id="highcharts-9n0y9j7-88"><rect x="0" y="0" width="726" height="321" fill="none"></rect></clipPath></defs><rect fill="#fff" class="highcharts-background" x="0" y="0" width="800" height="400" rx="0" ry="0"></rect><rect fill="none" class="highcharts-plot-background" x="64" y="45" width="726" height="321"></rect><g class="highcharts-range-selector-buttons" transform="translate(0,10)"><text x="64" y="15" style="color:#8a8a8a;font-size:13px;font-family:arial;margin-top:-10px;fill:#8a8a8a;"></text><g class="highcharts-button highcharts-button-normal" style="cursor:pointer;" states="[object Object]" transform="translate(69,0)"><rect fill="#e6e6e6" class=" highcharts-button-box" x="0" y="0" width="34" height="22" rx="0" ry="0"></rect><text x="10.96875" style="font-size:12px;font-weight:normal;color:#555;fill:#555;" y="14">1h</text></g><g class="highcharts-button highcharts-button-normal" style="cursor:pointer;" states="[object Object]" transform="translate(105,0)"><rect fill="#e6e6e6" class=" highcharts-button-box" x="0" y="0" width="34" height="22" rx="0" ry="0"></rect><text x="7.4453125" style="font-size:12px;font-weight:normal;color:#555;fill:#555;" y="14">12h</text></g><g class="highcharts-button highcharts-button-normal" style="cursor:pointer;" states="[object Object]" transform="translate(141,0)"><rect fill="#e6e6e6" class=" highcharts-button-box" x="0" y="0" width="34" height="22" rx="0" ry="0"></rect><text x="10.96875" style="font-size:12px;font-weight:normal;color:#555;fill:#555;" y="14">1d</text></g><g class="highcharts-button highcharts-button-normal" style="cursor:pointer;" states="[object Object]" transform="translate(177,0)"><rect fill="#e6e6e6" class=" highcharts-button-box" x="0" y="0" width="34" height="22" rx="0" ry="0"></rect><text x="9.46875" style="font-size:12px;font-weight:normal;color:#555;fill:#555;" y="14">1w</text></g><g class="highcharts-button highcharts-button-normal" style="cursor:pointer;" states="[object Object]" transform="translate(213,0)"><rect fill="#e6e6e6" class=" highcharts-button-box" x="0" y="0" width="34" height="22" rx="0" ry="0"></rect><text x="9.46875" style="font-size:12px;font-weight:normal;color:#555;fill:#555;" y="14">1m</text></g><g class="highcharts-button highcharts-button-normal" style="cursor:pointer;" states="[object Object]" transform="translate(249,0)"><rect fill="#e6e6e6" class=" highcharts-button-box" x="0" y="0" width="34" height="22" rx="0" ry="0"></rect><text x="9.46875" style="font-size:12px;font-weight:normal;color:#555;fill:#555;" y="14">3m</text></g><g class="highcharts-button highcharts-button-normal" style="cursor:pointer;" states="[object Object]" transform="translate(285,0)"><rect fill="#e6e6e6" class=" highcharts-button-box" x="0" y="0" width="34" height="22" rx="0" ry="0"></rect><text x="10.96875" style="font-size:12px;font-weight:normal;color:#555;fill:#555;" y="14">1y</text></g><g class="highcharts-button highcharts-button-normal" style="cursor:pointer;" states="[object Object]" transform="translate(321,0)"><rect fill="#e6e6e6" class=" highcharts-button-box" x="0" y="0" width="34" height="22" rx="0" ry="0"></rect><text x="9.703125" style="font-size:12px;font-weight:normal;color:#555;fill:#555;" y="14">All</text></g></g><g class="highcharts-input-group" transform="translate(481,10)"><g class="highcharts-label highcharts-range-label" transform="translate(0,0)" style="margin-top:-10px;fill:#8a8a8a;"><text x="2" y="14" style="font-size:13px;font-family:arial;color:#8a8a8a;fill:#8a8a8a;"></text></g><g class="highcharts-label highcharts-range-input" transform="translate(9,0)"><rect fill="none" class="highcharts-label-box" x="0.5" y="0.5" width="94" height="21" stroke="#d8d8d8" stroke-width="1"></rect><text x="14.484375" y="14" style="font-size:12px;font-family:arial;color:#8a8a8a;fill:#8a8a8a;"><tspan>Jan  1, 2013</tspan></text></g><g class="highcharts-label highcharts-range-label" transform="translate(113,0)" style="margin-top:-10px;fill:#8a8a8a;"><text x="2" y="14" style="font-size:13px;font-family:arial;color:#8a8a8a;fill:#8a8a8a;">to</text></g><g class="highcharts-label highcharts-range-input" transform="translate(135,0)"><rect fill="none" class="highcharts-label-box" x="0.5" y="0.5" width="94" height="21" stroke="#d8d8d8" stroke-width="1"></rect><text x="10.4765625" y="14" style="font-size:12px;font-family:arial;color:#8a8a8a;fill:#8a8a8a;"><tspan>Feb 16, 2018</tspan></text></g></g><image preserveAspectRatio="none" x="640" y="271" width="150" height="29" xmlns:xlink="http://www.w3.org/1999/xlink" xlink:href="https://www.coindesk.com/wp-content/themes/coindesk2/images/bpi-chart-branding.png"></image><g class="highcharts-grid highcharts-xaxis-grid "><path fill="none" opacity="1" class="highcharts-grid-line" d="M 63.5 45 L 63.5 366"></path><path fill="none" opacity="1" class="highcharts-grid-line" d="M 204.5 45 L 204.5 366"></path><path fill="none" opacity="1" class="highcharts-grid-line" d="M 346.5 45 L 346.5 366"></path><path fill="none" opacity="1" class="highcharts-grid-line" d="M 487.5 45 L 487.5 366"></path><path fill="none" opacity="1" class="highcharts-grid-line" d="M 629.5 45 L 629.5 366"></path><path fill="none" opacity="1" class="highcharts-grid-line" d="M 771.5 45 L 771.5 366"></path></g><g class="highcharts-grid highcharts-yaxis-grid "><path fill="none" stroke="#e8e8e8" stroke-width="1" class="highcharts-grid-line" d="M 64 173.5 L 790 173.5" opacity="1"></path><path fill="none" stroke="#e8e8e8" stroke-width="1" opacity="1" class="highcharts-grid-line" d="M 64 366.5 L 790 366.5"></path><path fill="none" stroke="#e8e8e8" stroke-width="1" opacity="1" class="highcharts-grid-line" d="M 64 302.5 L 790 302.5"></path><path fill="none" stroke="#e8e8e8" stroke-width="1" opacity="1" class="highcharts-grid-line" d="M 64 238.5 L 790 238.5"></path><path fill="none" stroke="#e8e8e8" stroke-width="1" opacity="1" class="highcharts-grid-line" d="M 64 109.5 L 790 109.5"></path><path fill="none" stroke="#e8e8e8" stroke-width="1" opacity="1" class="highcharts-grid-line" d="M 64 44.5 L 790 44.5"></path></g><rect fill="none" class="highcharts-plot-border" x="64" y="45" width="726" height="321"></rect><g class="highcharts-axis highcharts-xaxis "><path fill="none" class="highcharts-tick" stroke="#ccd6eb" stroke-width="1" d="M 63.5 366 L 63.5 376" opacity="1"></path><path fill="none" class="highcharts-tick" stroke="#ccd6eb" stroke-width="1" d="M 204.5 366 L 204.5 376" opacity="1"></path><path fill="none" class="highcharts-tick" stroke="#ccd6eb" stroke-width="1" d="M 346.5 366 L 346.5 376" opacity="1"></path><path fill="none" class="highcharts-tick" stroke="#ccd6eb" stroke-width="1" d="M 487.5 366 L 487.5 376" opacity="1"></path><path fill="none" class="highcharts-tick" stroke="#ccd6eb" stroke-width="1" d="M 629.5 366 L 629.5 376" opacity="1"></path><path fill="none" class="highcharts-tick" stroke="#ccd6eb" stroke-width="1" d="M 771.5 366 L 771.5 376" opacity="1"></path><path fill="none" class="highcharts-axis-line" stroke="#fff" stroke-width="1" d="M 64 366.5 L 790 366.5"></path></g><g class="highcharts-axis highcharts-yaxis "><path fill="none" class="highcharts-axis-line" d="M 64 45 L 64 366"></path></g><g class="highcharts-series-group"><g class="highcharts-series highcharts-series-0 highcharts-line-series highcharts-color-undefined " transform="translate(64,45) scale(1 1)" clip-path="url(#highcharts-9n0y9j7-88)"><path fill="none" d="M -3.1010605538699 256.6282008 L -0.38763256923374 256.6280082 L 2.3257954154024 256.6207169142857 L 5.0392234000386 256.6059509142857 L 7.7526513846748 256.5770242285714 L 10.466079369311 256.54488754285717 L 13.179507353947 256.51634605714287 L 15.892935338583 256.46548131428574 L 18.60636332322 256.4226874285714 L 21.319791307856 256.37989354285713 L 24.033219292492 256.25607925714286 L 26.746647277128 256.1981158285714 L 29.460075261764 255.97128805714286 L 32.173503246401 255.69407245714285 L 34.886931231037 255.08246657142857 L 37.600359215673 254.95214057142857 L 40.313787200309 255.48457868571427 L 43.027215184945 255.0278598857143 L 45.740643169581 255.27233348571428 L 48.454071154218 255.33989022857145 L 51.167499138854 255.2756718857143 L 53.88092712349 255.1608822857143 L 56.594355108126 255.14833577142858 L 59.307783092762 255.3282792 L 62.021211077399 255.46504354285713 L 64.734639062035 255.41614148571426 L 67.448067046671 255.51906325714285 L 70.161495031307 255.8231694857143 L 72.874923015943 255.70909525714285 L 75.58835100058 255.66499902857143 L 78.301778985216 255.65956954285713 L 81.015206969852 255.56288434285713 L 83.728634954488 255.57735685714283 L 86.442062939124 255.54312908571427 L 89.15549092376 255.4123445142857 L 91.868918908397 255.2486712 L 94.582346893033 255.24450737142857 L 97.295774877669 255.20809680000002 L 100.00920286231 255.20470337142856 L 102.72263084694 255.21317777142855 L 105.43605883158 255.27877182857142 L 108.14948681621 255.18298542857144 L 110.86291480085 254.92115948571427 L 113.57634278549 254.44932617142857 L 116.28977077012 254.25799182857142 L 119.00319875476 253.18042234285713 L 121.71662673939 251.66354142857142 L 124.43005472403 248.06823137142857 L 127.14348270867 244.2239170285714 L 129.8569106933 244.6566617142857 L 132.57033867794 245.2583074285714 L 135.28376666258 248.6068877142857 L 137.99719464721 247.59991988571429 L 140.71062263185 246.30816085714287 L 143.42405061648 245.4794489142857 L 146.13747860112 245.82633068571428 L 148.85090658576 245.73786308571428 L 151.56433457039 246.0006245142857 L 154.27776255503 246.9758958857143 L 156.99119053967 248.52984771428572 L 159.7046185243 249.11250857142858 L 162.41804650894 249.64300234285713 L 165.13147449357 248.5099824 L 167.84490247821 248.70083982857142 L 170.55833046285 249.23026971428573 L 173.27175844748 250.04383045714286 L 175.98518643212 250.9372193142857 L 178.69861441675 251.3826389142857 L 181.41204240139 250.41960222857142 L 184.12547038603 250.7283125142857 L 186.83889837066 251.1117149142857 L 189.5523263553 251.1751812 L 192.26575433994 251.11721777142856 L 194.97918232457 250.26972274285714 L 197.69261030921 249.1690596 L 200.40603829384 248.4186533142857 L 203.11946627848 248.97502885714283 L 205.83289426312 249.14924931428573 L 208.54632224775 249.28770120000001 L 211.25975023239 248.63746525714285 L 213.97317821703 248.7894725142857 L 216.68660620166 248.81911457142857 L 219.4000341863 249.0198954857143 L 222.11346217093 249.31521548571428 L 224.82689015557 249.26405725714284 L 227.54031814021 250.00573234285713 L 230.25374612484 250.38874954285714 L 232.96717410948 250.34287405714286 L 235.68060209411 250.64542114285715 L 238.39403007875 250.7043017142857 L 241.10745806339 251.2846697142857 L 243.82088604802 251.58723514285714 L 246.53431403266 252.1849188 L 249.2477420173 252.26344457142858 L 251.96117000193 251.81995097142857 L 254.67459798657 252.12343354285713 L 257.3880259712 252.4638402857143 L 260.10145395584 252.422844 L 262.81488194048 251.77629497142857 L 265.52830992511 252.1055309142857 L 268.24173790975 252.00009617142857 L 270.95516589439 251.97835988571427 L 273.66859387902 252.29956165714285 L 276.38202186366 252.64182102857143 L 279.09544984829 252.64655348571426 L 281.80887783293 252.92232 L 284.52230581757 253.19573862857143 L 287.2357338022 254.0511761142857 L 289.94916178684 253.83108017142857 L 292.66258977147 253.7377884 L 295.37601775611 253.90058125714285 L 298.08944574075 253.84830411428572 L 300.80287372538 253.72432474285714 L 303.51630171002 253.6542550285714 L 306.22972969466 253.27420937142858 L 308.94315767929 253.0952748 L 311.65658566393 253.35482622857143 L 314.37001364856 253.59731879999998 L 317.0834416332 253.57961794285714 L 319.79686961784 253.67819245714287 L 322.51029760247 253.93829417142857 L 325.22372558711 253.85587971428572 L 327.93715357175 253.82135845714285 L 330.65058155638 253.7428877142857 L 333.36400954102 253.74679474285716 L 336.07743752565 253.7640737142857 L 338.79086551029 253.77368537142857 L 341.50429349493 253.91432005714285 L 344.21772147956 253.83992142857142 L 346.9311494642 253.64673445714286 L 349.64457744883 253.65453017142858 L 352.35800543347 253.46536028571427 L 355.07143341811 253.21074308571428 L 357.78486140274 253.19711434285713 L 360.49828938738 253.18003714285715 L 363.21171737202 253.11636908571427 L 365.92514535665 253.26298354285714 L 368.63857334129 253.41220268571428 L 371.35200132592 253.8186804 L 374.06542931056 253.92048325714285 L 376.7788572952 253.83359314285713 L 379.49228527983 253.74466697142856 L 382.20571326447 253.83474874285713 L 384.9191412491 253.82245902857142 L 387.63256923374 253.74598765714285 L 390.34599721838 253.6630962857143 L 393.05942520301 253.49834074285712 L 395.77285318765 253.27896017142857 L 398.48628117229 252.83515474285713 L 401.19970915692 251.86659685714284 L 403.91313714156 252.4744241142857 L 406.62656512619 252.5772174857143 L 409.33999311083 252.37313485714287 L 412.05342109547 252.02869268571428 L 414.7668490801 251.35101582857143 L 417.48027706474 250.94996759999998 L 420.19370504938 251.17608 L 422.90713303401 251.2815881142857 L 425.62056101865 251.10463457142856 L 428.33398900328 251.53620531428572 L 431.04741698792 251.73219874285712 L 433.76084497256 251.88710417142858 L 436.47427295719 251.9617229142857 L 439.18770094183 251.87650200000002 L 441.90112892646 251.40743845714286 L 444.6145569111 251.29206188571428 L 447.32798489574 251.4408041142857 L 450.04141288037 251.4882204 L 452.75484086501 251.49436525714285 L 455.46826884965 251.44777440000001 L 458.18169683428 251.4397769142857 L 460.89512481892 251.40244919999998 L 463.60855280355 251.32067674285713 L 466.32198078819 251.07893622857142 L 469.03540877283 250.9598177142857 L 471.74883675746 250.98615805714286 L 474.4622647421 250.95093977142858 L 477.17569272674 251.07497417142855 L 479.88912071137 250.71954462857144 L 482.60254869601 249.72519668571428 L 485.31597668064 249.11582862857142 L 488.02940466528 247.4021472 L 490.74283264992 248.39356028571427 L 493.45626063455 248.25927222857143 L 496.16968861919 248.30556959999998 L 498.88311660382 248.2982508 L 501.59654458846 248.27893577142856 L 504.3099725731 248.44517708571428 L 507.02340055773 249.3529284 L 509.73682854237 249.2843077714286 L 512.45025652701 249.42114548571428 L 515.16368451164 249.38928394285716 L 517.87711249628 249.32743182857143 L 520.59054048091 248.9003550857143 L 523.30396846555 249.00982525714284 L 526.01739645019 249.09405565714286 L 528.73082443482 248.99913137142858 L 531.44425241946 248.92871314285713 L 534.1576804041 248.6512590857143 L 536.87110838873 248.61670114285715 L 539.58453637337 248.06973548571426 L 542.297964358 247.6734197142857 L 545.01139234264 247.68242605714283 L 547.72482032728 247.3997442857143 L 550.43824831191 247.33057337142856 L 553.15167629655 247.14870394285714 L 555.86510428118 246.9821508 L 558.57853226582 246.77874685714286 L 561.29196025046 245.81950714285713 L 564.00538823509 244.4961984 L 566.71881621973 244.14542794285714 L 569.43224420437 246.06919011428573 L 572.145672189 245.32848719999998 L 574.85910017364 245.1331541142857 L 577.57252815827 244.05391542857143 L 580.28595614291 243.73432782857142 L 582.99938412755 243.5680865142857 L 585.71281211218 242.08913862857145 L 588.42624009682 240.81922594285714 L 591.13966808146 241.42180714285712 L 593.85309606609 242.16131777142857 L 596.56652405073 243.79557462857144 L 599.27995203536 243.16997314285715 L 601.99338002 241.74992417142857 L 604.70680800464 241.42488874285715 L 607.42023598927 240.92721034285714 L 610.13366397391 240.06959005714285 L 612.84709195854 237.59620251428572 L 615.56051994318 234.56884234285712 L 618.27394792782 232.62316045714286 L 620.98737591245 227.77118125714287 L 623.70080389709 225.8090458285714 L 626.41423188173 220.19224285714284 L 629.12765986636 223.52387434285714 L 631.841087851 222.26914954285715 L 634.55451583563 224.30634394285715 L 637.26794382027 223.63361965714284 L 639.98137180491 228.08117554285712 L 642.69479978954 223.7100726857143 L 645.40822777418 222.15125999999998 L 648.12165575882 219.03609257142858 L 650.83508374345 210.1790422285714 L 653.54851172809 202.12797702857142 L 656.26193971272 201.8877406285714 L 658.97536769736 196.80093617142853 L 661.688795682 200.29070142857142 L 664.40222366663 208.23546977142857 L 667.11565165127 208.23257159999997 L 669.8290796359 203.3697334285714 L 672.54250762054 200.52945205714283 L 675.25593560518 189.0327178285714 L 677.96936358981 182.32156165714287 L 680.68279157445 182.18635645714286 L 683.39621955909 168.23969519999997 L 686.10964754372 169.7682605142857 L 688.82307552836 161.89372697142855 L 691.53650351299 148.83586885714286 L 694.24993149763 124.15247297142855 L 696.96335948227 73.5779324571428 L 699.6767874669 31.462255542857122 L 702.39021545154 53.25677982857138 L 705.10364343618 72.66128485714285 L 707.81707142081 57.42308468571429 L 710.53049940545 74.82357754285712 L 713.24392739008 104.32822834285713 L 715.95735537472 113.10128674285713 L 718.67078335936 134.54274771428572 L 721.38421134399 154.53684719999998 L 724.09763932863 136.14036288" class="highcharts-graph" stroke="#333333" stroke-width="2" stroke-linejoin="round" stroke-linecap="round"></path><path fill="none" d="M -13.1010605538699 256.6282008 L -3.1010605538699 256.6282008 L -0.38763256923374 256.6280082 L 2.3257954154024 256.6207169142857 L 5.0392234000386 256.6059509142857 L 7.7526513846748 256.5770242285714 L 10.466079369311 256.54488754285717 L 13.179507353947 256.51634605714287 L 15.892935338583 256.46548131428574 L 18.60636332322 256.4226874285714 L 21.319791307856 256.37989354285713 L 24.033219292492 256.25607925714286 L 26.746647277128 256.1981158285714 L 29.460075261764 255.97128805714286 L 32.173503246401 255.69407245714285 L 34.886931231037 255.08246657142857 L 37.600359215673 254.95214057142857 L 40.313787200309 255.48457868571427 L 43.027215184945 255.0278598857143 L 45.740643169581 255.27233348571428 L 48.454071154218 255.33989022857145 L 51.167499138854 255.2756718857143 L 53.88092712349 255.1608822857143 L 56.594355108126 255.14833577142858 L 59.307783092762 255.3282792 L 62.021211077399 255.46504354285713 L 64.734639062035 255.41614148571426 L 67.448067046671 255.51906325714285 L 70.161495031307 255.8231694857143 L 72.874923015943 255.70909525714285 L 75.58835100058 255.66499902857143 L 78.301778985216 255.65956954285713 L 81.015206969852 255.56288434285713 L 83.728634954488 255.57735685714283 L 86.442062939124 255.54312908571427 L 89.15549092376 255.4123445142857 L 91.868918908397 255.2486712 L 94.582346893033 255.24450737142857 L 97.295774877669 255.20809680000002 L 100.00920286231 255.20470337142856 L 102.72263084694 255.21317777142855 L 105.43605883158 255.27877182857142 L 108.14948681621 255.18298542857144 L 110.86291480085 254.92115948571427 L 113.57634278549 254.44932617142857 L 116.28977077012 254.25799182857142 L 119.00319875476 253.18042234285713 L 121.71662673939 251.66354142857142 L 124.43005472403 248.06823137142857 L 127.14348270867 244.2239170285714 L 129.8569106933 244.6566617142857 L 132.57033867794 245.2583074285714 L 135.28376666258 248.6068877142857 L 137.99719464721 247.59991988571429 L 140.71062263185 246.30816085714287 L 143.42405061648 245.4794489142857 L 146.13747860112 245.82633068571428 L 148.85090658576 245.73786308571428 L 151.56433457039 246.0006245142857 L 154.27776255503 246.9758958857143 L 156.99119053967 248.52984771428572 L 159.7046185243 249.11250857142858 L 162.41804650894 249.64300234285713 L 165.13147449357 248.5099824 L 167.84490247821 248.70083982857142 L 170.55833046285 249.23026971428573 L 173.27175844748 250.04383045714286 L 175.98518643212 250.9372193142857 L 178.69861441675 251.3826389142857 L 181.41204240139 250.41960222857142 L 184.12547038603 250.7283125142857 L 186.83889837066 251.1117149142857 L 189.5523263553 251.1751812 L 192.26575433994 251.11721777142856 L 194.97918232457 250.26972274285714 L 197.69261030921 249.1690596 L 200.40603829384 248.4186533142857 L 203.11946627848 248.97502885714283 L 205.83289426312 249.14924931428573 L 208.54632224775 249.28770120000001 L 211.25975023239 248.63746525714285 L 213.97317821703 248.7894725142857 L 216.68660620166 248.81911457142857 L 219.4000341863 249.0198954857143 L 222.11346217093 249.31521548571428 L 224.82689015557 249.26405725714284 L 227.54031814021 250.00573234285713 L 230.25374612484 250.38874954285714 L 232.96717410948 250.34287405714286 L 235.68060209411 250.64542114285715 L 238.39403007875 250.7043017142857 L 241.10745806339 251.2846697142857 L 243.82088604802 251.58723514285714 L 246.53431403266 252.1849188 L 249.2477420173 252.26344457142858 L 251.96117000193 251.81995097142857 L 254.67459798657 252.12343354285713 L 257.3880259712 252.4638402857143 L 260.10145395584 252.422844 L 262.81488194048 251.77629497142857 L 265.52830992511 252.1055309142857 L 268.24173790975 252.00009617142857 L 270.95516589439 251.97835988571427 L 273.66859387902 252.29956165714285 L 276.38202186366 252.64182102857143 L 279.09544984829 252.64655348571426 L 281.80887783293 252.92232 L 284.52230581757 253.19573862857143 L 287.2357338022 254.0511761142857 L 289.94916178684 253.83108017142857 L 292.66258977147 253.7377884 L 295.37601775611 253.90058125714285 L 298.08944574075 253.84830411428572 L 300.80287372538 253.72432474285714 L 303.51630171002 253.6542550285714 L 306.22972969466 253.27420937142858 L 308.94315767929 253.0952748 L 311.65658566393 253.35482622857143 L 314.37001364856 253.59731879999998 L 317.0834416332 253.57961794285714 L 319.79686961784 253.67819245714287 L 322.51029760247 253.93829417142857 L 325.22372558711 253.85587971428572 L 327.93715357175 253.82135845714285 L 330.65058155638 253.7428877142857 L 333.36400954102 253.74679474285716 L 336.07743752565 253.7640737142857 L 338.79086551029 253.77368537142857 L 341.50429349493 253.91432005714285 L 344.21772147956 253.83992142857142 L 346.9311494642 253.64673445714286 L 349.64457744883 253.65453017142858 L 352.35800543347 253.46536028571427 L 355.07143341811 253.21074308571428 L 357.78486140274 253.19711434285713 L 360.49828938738 253.18003714285715 L 363.21171737202 253.11636908571427 L 365.92514535665 253.26298354285714 L 368.63857334129 253.41220268571428 L 371.35200132592 253.8186804 L 374.06542931056 253.92048325714285 L 376.7788572952 253.83359314285713 L 379.49228527983 253.74466697142856 L 382.20571326447 253.83474874285713 L 384.9191412491 253.82245902857142 L 387.63256923374 253.74598765714285 L 390.34599721838 253.6630962857143 L 393.05942520301 253.49834074285712 L 395.77285318765 253.27896017142857 L 398.48628117229 252.83515474285713 L 401.19970915692 251.86659685714284 L 403.91313714156 252.4744241142857 L 406.62656512619 252.5772174857143 L 409.33999311083 252.37313485714287 L 412.05342109547 252.02869268571428 L 414.7668490801 251.35101582857143 L 417.48027706474 250.94996759999998 L 420.19370504938 251.17608 L 422.90713303401 251.2815881142857 L 425.62056101865 251.10463457142856 L 428.33398900328 251.53620531428572 L 431.04741698792 251.73219874285712 L 433.76084497256 251.88710417142858 L 436.47427295719 251.9617229142857 L 439.18770094183 251.87650200000002 L 441.90112892646 251.40743845714286 L 444.6145569111 251.29206188571428 L 447.32798489574 251.4408041142857 L 450.04141288037 251.4882204 L 452.75484086501 251.49436525714285 L 455.46826884965 251.44777440000001 L 458.18169683428 251.4397769142857 L 460.89512481892 251.40244919999998 L 463.60855280355 251.32067674285713 L 466.32198078819 251.07893622857142 L 469.03540877283 250.9598177142857 L 471.74883675746 250.98615805714286 L 474.4622647421 250.95093977142858 L 477.17569272674 251.07497417142855 L 479.88912071137 250.71954462857144 L 482.60254869601 249.72519668571428 L 485.31597668064 249.11582862857142 L 488.02940466528 247.4021472 L 490.74283264992 248.39356028571427 L 493.45626063455 248.25927222857143 L 496.16968861919 248.30556959999998 L 498.88311660382 248.2982508 L 501.59654458846 248.27893577142856 L 504.3099725731 248.44517708571428 L 507.02340055773 249.3529284 L 509.73682854237 249.2843077714286 L 512.45025652701 249.42114548571428 L 515.16368451164 249.38928394285716 L 517.87711249628 249.32743182857143 L 520.59054048091 248.9003550857143 L 523.30396846555 249.00982525714284 L 526.01739645019 249.09405565714286 L 528.73082443482 248.99913137142858 L 531.44425241946 248.92871314285713 L 534.1576804041 248.6512590857143 L 536.87110838873 248.61670114285715 L 539.58453637337 248.06973548571426 L 542.297964358 247.6734197142857 L 545.01139234264 247.68242605714283 L 547.72482032728 247.3997442857143 L 550.43824831191 247.33057337142856 L 553.15167629655 247.14870394285714 L 555.86510428118 246.9821508 L 558.57853226582 246.77874685714286 L 561.29196025046 245.81950714285713 L 564.00538823509 244.4961984 L 566.71881621973 244.14542794285714 L 569.43224420437 246.06919011428573 L 572.145672189 245.32848719999998 L 574.85910017364 245.1331541142857 L 577.57252815827 244.05391542857143 L 580.28595614291 243.73432782857142 L 582.99938412755 243.5680865142857 L 585.71281211218 242.08913862857145 L 588.42624009682 240.81922594285714 L 591.13966808146 241.42180714285712 L 593.85309606609 242.16131777142857 L 596.56652405073 243.79557462857144 L 599.27995203536 243.16997314285715 L 601.99338002 241.74992417142857 L 604.70680800464 241.42488874285715 L 607.42023598927 240.92721034285714 L 610.13366397391 240.06959005714285 L 612.84709195854 237.59620251428572 L 615.56051994318 234.56884234285712 L 618.27394792782 232.62316045714286 L 620.98737591245 227.77118125714287 L 623.70080389709 225.8090458285714 L 626.41423188173 220.19224285714284 L 629.12765986636 223.52387434285714 L 631.841087851 222.26914954285715 L 634.55451583563 224.30634394285715 L 637.26794382027 223.63361965714284 L 639.98137180491 228.08117554285712 L 642.69479978954 223.7100726857143 L 645.40822777418 222.15125999999998 L 648.12165575882 219.03609257142858 L 650.83508374345 210.1790422285714 L 653.54851172809 202.12797702857142 L 656.26193971272 201.8877406285714 L 658.97536769736 196.80093617142853 L 661.688795682 200.29070142857142 L 664.40222366663 208.23546977142857 L 667.11565165127 208.23257159999997 L 669.8290796359 203.3697334285714 L 672.54250762054 200.52945205714283 L 675.25593560518 189.0327178285714 L 677.96936358981 182.32156165714287 L 680.68279157445 182.18635645714286 L 683.39621955909 168.23969519999997 L 686.10964754372 169.7682605142857 L 688.82307552836 161.89372697142855 L 691.53650351299 148.83586885714286 L 694.24993149763 124.15247297142855 L 696.96335948227 73.5779324571428 L 699.6767874669 31.462255542857122 L 702.39021545154 53.25677982857138 L 705.10364343618 72.66128485714285 L 707.81707142081 57.42308468571429 L 710.53049940545 74.82357754285712 L 713.24392739008 104.32822834285713 L 715.95735537472 113.10128674285713 L 718.67078335936 134.54274771428572 L 721.38421134399 154.53684719999998 L 724.09763932863 136.14036288 L 734.09763932863 136.14036288" stroke-linejoin="round" visibility="visible" stroke="rgba(192,192,192,0.0001)" stroke-width="22" class="highcharts-tracker"></path></g><g class="highcharts-markers highcharts-series-0 highcharts-line-series highcharts-color-undefined highcharts-tracker" transform="translate(64,45) scale(1 1)" clip-path="none"></g><g class="highcharts-series highcharts-series-1 highcharts-flags-series highcharts-color-0 " transform="translate(64,45) scale(1 1)" clip-path="url(#highcharts-9n0y9j7-87)"></g><g class="highcharts-markers highcharts-series-1 highcharts-flags-series highcharts-color-0 highcharts-tracker" transform="translate(64,45) scale(1 1)"><g class="highcharts-label highcharts-point" transform="translate(9,291)"><path fill="#ffffff" class="highcharts-label-box" d="M 0.5 0.5 L 120.5 0.5 120.5 17.5 0.5 17.5 Z M 60.5 17.5 L 60.5 30" stroke="#333" stroke-width="1"></path><text x="3" style="font-size:11px;font-weight:bold;" y="14"><tspan>CoinDesk BPI in effect</tspan></text></g></g><g class="highcharts-series highcharts-series-2 highcharts-flags-series highcharts-color-0 " transform="translate(64,45) scale(1 1)" clip-path="url(#highcharts-9n0y9j7-87)"></g><g class="highcharts-markers highcharts-series-2 highcharts-flags-series highcharts-color-0 highcharts-tracker" transform="translate(64,45) scale(1 1)"><g class="highcharts-label highcharts-point" transform="translate(9,291)"><path fill="#ffffff" class="highcharts-label-box" d="M 0.5 0.5 L 120.5 0.5 120.5 17.5 0.5 17.5 Z M 60.5 17.5 L 60.5 30" stroke="#333" stroke-width="1"></path><text x="3" style="font-size:11px;font-weight:bold;" y="14"><tspan>CoinDesk BPI in effect</tspan></text></g></g><g class="highcharts-series highcharts-series-3 highcharts-flags-series highcharts-color-0 " transform="translate(64,45) scale(1 1)" clip-path="url(#highcharts-9n0y9j7-87)"></g><g class="highcharts-markers highcharts-series-3 highcharts-flags-series highcharts-color-0 highcharts-tracker" transform="translate(64,45) scale(1 1)"><g class="highcharts-label highcharts-point" transform="translate(9,291)"><path fill="#ffffff" class="highcharts-label-box" d="M 0.5 0.5 L 120.5 0.5 120.5 17.5 0.5 17.5 Z M 60.5 17.5 L 60.5 30" stroke="#333" stroke-width="1"></path><text x="3" style="font-size:11px;font-weight:bold;" y="14"><tspan>CoinDesk BPI in effect</tspan></text></g></g><g class="highcharts-series highcharts-series-4 highcharts-flags-series highcharts-color-0 " transform="translate(64,45) scale(1 1)" clip-path="url(#highcharts-9n0y9j7-87)"></g><g class="highcharts-markers highcharts-series-4 highcharts-flags-series highcharts-color-0 highcharts-tracker" transform="translate(64,45) scale(1 1)"><g class="highcharts-label highcharts-point" transform="translate(9,291)"><path fill="#ffffff" class="highcharts-label-box" d="M 0.5 0.5 L 120.5 0.5 120.5 17.5 0.5 17.5 Z M 60.5 17.5 L 60.5 30" stroke="#333" stroke-width="1"></path><text x="3" style="font-size:11px;font-weight:bold;" y="14"><tspan>CoinDesk BPI in effect</tspan></text></g></g><g class="highcharts-series highcharts-series-5 highcharts-flags-series highcharts-color-0 " transform="translate(64,45) scale(1 1)" clip-path="url(#highcharts-9n0y9j7-87)"></g><g class="highcharts-markers highcharts-series-5 highcharts-flags-series highcharts-color-0 highcharts-tracker" transform="translate(64,45) scale(1 1)"><g class="highcharts-label highcharts-point" transform="translate(9,291)"><path fill="#ffffff" class="highcharts-label-box" d="M 0.5 0.5 L 120.5 0.5 120.5 17.5 0.5 17.5 Z M 60.5 17.5 L 60.5 30" stroke="#333" stroke-width="1"></path><text x="3" style="font-size:11px;font-weight:bold;" y="14"><tspan>CoinDesk BPI in effect</tspan></text></g></g><g class="highcharts-series highcharts-series-6 highcharts-flags-series highcharts-color-0 " transform="translate(64,45) scale(1 1)" clip-path="url(#highcharts-9n0y9j7-87)"></g><g class="highcharts-markers highcharts-series-6 highcharts-flags-series highcharts-color-0 highcharts-tracker" transform="translate(64,45) scale(1 1)"><g class="highcharts-label highcharts-point" transform="translate(9,291)"><path fill="#ffffff" class="highcharts-label-box" d="M 0.5 0.5 L 120.5 0.5 120.5 17.5 0.5 17.5 Z M 60.5 17.5 L 60.5 30" stroke="#333" stroke-width="1"></path><text x="3" style="font-size:11px;font-weight:bold;" y="14"><tspan>CoinDesk BPI in effect</tspan></text></g></g><g class="highcharts-series highcharts-series-7 highcharts-flags-series highcharts-color-0 " transform="translate(64,45) scale(1 1)" clip-path="url(#highcharts-9n0y9j7-87)"></g><g class="highcharts-markers highcharts-series-7 highcharts-flags-series highcharts-color-0 highcharts-tracker" transform="translate(64,45) scale(1 1)"><g class="highcharts-label highcharts-point" transform="translate(9,291)"><path fill="#ffffff" class="highcharts-label-box" d="M 0.5 0.5 L 120.5 0.5 120.5 17.5 0.5 17.5 Z M 60.5 17.5 L 60.5 30" stroke="#333" stroke-width="1"></path><text x="3" style="font-size:11px;font-weight:bold;" y="14"><tspan>CoinDesk BPI in effect</tspan></text></g></g><g class="highcharts-series highcharts-series-8 highcharts-flags-series highcharts-color-0 " transform="translate(64,45) scale(1 1)" clip-path="url(#highcharts-9n0y9j7-87)"></g><g class="highcharts-markers highcharts-series-8 highcharts-flags-series highcharts-color-0 highcharts-tracker" transform="translate(64,45) scale(1 1)"><g class="highcharts-label highcharts-point" transform="translate(9,291)"><path fill="#ffffff" class="highcharts-label-box" d="M 0.5 0.5 L 120.5 0.5 120.5 17.5 0.5 17.5 Z M 60.5 17.5 L 60.5 30" stroke="#333" stroke-width="1"></path><text x="3" style="font-size:11px;font-weight:bold;" y="14"><tspan>CoinDesk BPI in effect</tspan></text></g></g><g class="highcharts-series highcharts-series-9 highcharts-flags-series highcharts-color-0 " transform="translate(64,45) scale(1 1)" clip-path="url(#highcharts-9n0y9j7-87)"></g><g class="highcharts-markers highcharts-series-9 highcharts-flags-series highcharts-color-0 highcharts-tracker" transform="translate(64,45) scale(1 1)"><g class="highcharts-label highcharts-point" transform="translate(9,291)"><path fill="#ffffff" class="highcharts-label-box" d="M 0.5 0.5 L 120.5 0.5 120.5 17.5 0.5 17.5 Z M 60.5 17.5 L 60.5 30" stroke="#333" stroke-width="1"></path><text x="3" style="font-size:11px;font-weight:bold;" y="14"><tspan>CoinDesk BPI in effect</tspan></text></g></g><g class="highcharts-series highcharts-series-10 highcharts-flags-series highcharts-color-0 " transform="translate(64,45) scale(1 1)" clip-path="url(#highcharts-9n0y9j7-87)"></g><g class="highcharts-markers highcharts-series-10 highcharts-flags-series highcharts-color-0 highcharts-tracker" transform="translate(64,45) scale(1 1)"><g class="highcharts-label highcharts-point" transform="translate(9,291)"><path fill="#ffffff" class="highcharts-label-box" d="M 0.5 0.5 L 120.5 0.5 120.5 17.5 0.5 17.5 Z M 60.5 17.5 L 60.5 30" stroke="#333" stroke-width="1"></path><text x="3" style="font-size:11px;font-weight:bold;" y="14"><tspan>CoinDesk BPI in effect</tspan></text></g></g></g><g class="highcharts-axis-labels highcharts-xaxis-labels "><text x="64" style="color:#8a8a8a;cursor:default;font-size:11px;fill:#8a8a8a;" text-anchor="middle" transform="translate(0,0)" y="385" opacity="1"><tspan>2013</tspan></text><text x="205.48588777031554" style="color:#8a8a8a;cursor:default;font-size:11px;fill:#8a8a8a;" text-anchor="middle" transform="translate(0,0)" y="385" opacity="1"><tspan>2014</tspan></text><text x="346.9717755406311" style="color:#8a8a8a;cursor:default;font-size:11px;fill:#8a8a8a;" text-anchor="middle" transform="translate(0,0)" y="385" opacity="1"><tspan>2015</tspan></text><text x="488.4576633109466" style="color:#8a8a8a;cursor:default;font-size:11px;fill:#8a8a8a;" text-anchor="middle" transform="translate(0,0)" y="385" opacity="1"><tspan>2016</tspan></text><text x="630.3311836504959" style="color:#8a8a8a;cursor:default;font-size:11px;fill:#8a8a8a;" text-anchor="middle" transform="translate(0,0)" y="385" opacity="1"><tspan>2017</tspan></text><text x="771.8170714208114" style="color:#8a8a8a;cursor:default;font-size:11px;fill:#8a8a8a;" text-anchor="middle" transform="translate(0,0)" y="385" opacity="1"><tspan>2018</tspan></text></g><g class="highcharts-axis-labels highcharts-yaxis-labels "><text x="49" style="color:#8a8a8a;cursor:default;font-size:11px;fill:#8a8a8a;" text-anchor="end" transform="translate(0,0)" y="171" opacity="1"><tspan>$10000</tspan></text><text x="0" style="color:#8a8a8a;cursor:default;font-size:11px;fill:#8a8a8a;" text-anchor="end" transform="translate(0,0)" y="-9999"><tspan>$-5000</tspan></text><text x="49" style="color:#8a8a8a;cursor:default;font-size:11px;fill:#8a8a8a;" text-anchor="end" transform="translate(0,0)" y="300" opacity="1"><tspan>$0</tspan></text><text x="49" style="color:#8a8a8a;cursor:default;font-size:11px;fill:#8a8a8a;" text-anchor="end" transform="translate(0,0)" y="236" opacity="1"><tspan>$5000</tspan></text><text x="49" style="color:#8a8a8a;cursor:default;font-size:11px;fill:#8a8a8a;" text-anchor="end" transform="translate(0,0)" y="107" opacity="1"><tspan>$15000</tspan></text><text x="0" style="color:#8a8a8a;cursor:default;font-size:11px;fill:#8a8a8a;" text-anchor="end" transform="translate(0,0)" y="-9999"><tspan>$20000</tspan></text></g></svg>